<svg xmlns="http://www.w3.org/2000/svg" version="1.1" xmlns:xlink="http://www.w3.org/1999/xlink" xmlns:svgjs="http://svgjs.com/svgjs" width="32" height="32"><svg version="1.1" id="SvgjsSvg1000" xmlns="http://www.w3.org/2000/svg" xmlns:xlink="http://www.w3.org/1999/xlink" x="0px" y="0px" viewBox="0 0 32 32" style="enable-background:new 0 0 32 32;" xml:space="preserve">
<style type="text/css">
	.st0{fill:none;stroke:#000000;stroke-width:2;stroke-linecap:round;stroke-linejoin:round;stroke-miterlimit:10;}
	.st1{fill:none;stroke:#000000;stroke-width:2;stroke-linejoin:round;stroke-miterlimit:10;}
</style>
<ellipse class="st0" cx="16" cy="16" rx="7" ry="8"></ellipse>
<path class="st0" d="M13,8c0-1.7,1.3-3,3-3s3,1.3,3,3"></path>
<polyline class="st0" points="16,8 16,18 12,22 "></polyline>
<line class="st0" x1="16" y1="18" x2="20" y2="22"></line>
<path class="st0" d="M7,5v0.4c0,2.3,1.1,4.4,3,5.6l0,0"></path>
<path class="st0" d="M25,5v0.4c0,2.3-1.1,4.4-3,5.6l0,0"></path>
<path class="st0" d="M7,27v-0.4c0-2.3,1.1-4.4,3-5.6l0,0"></path>
<path class="st0" d="M25,27v-0.4c0-2.3-1.1-4.4-3-5.6l0,0"></path>
<line class="st0" x1="3" y1="16" x2="9" y2="16"></line>
<line class="st0" x1="23" y1="16" x2="29" y2="16"></line>
</svg><style>@media (prefers-color-scheme: light) { :root { filter: none; } }
</style></svg>